<?xml version="1.0" encoding="iso-8859-1"?>
<!-- Generator: Adobe Illustrator 19.0.0, SVG Export Plug-In . SVG Version: 6.00 Build 0)  -->
<svg version="1.1" id="Layer_1" xmlns="http://www.w3.org/2000/svg" xmlns:xlink="http://www.w3.org/1999/xlink" x="0px" y="0px"
	 viewBox="0 0 512.001 512.001" style="enable-background:new 0 0 512.001 512.001;" xml:space="preserve">
<path style="fill:#FF9F38;" d="M371.427,347.351l-15.83-15.83c6.929-11.805,10.638-27.172,9.547-43.738
	c-1.547-23.493-12.324-43.37-27.048-53.426c-13.278,11.9-21.355,33.018-19.809,56.511c0.082,1.234,0.194,2.455,0.325,3.668
	l-10.278-10.278c6.929-11.805,10.638-27.172,9.547-43.738c-1.547-23.493-12.324-43.37-27.048-53.426
	c-13.278,11.9-21.355,33.018-19.808,56.511c0.081,1.234,0.193,2.455,0.325,3.668l-12.399-12.4
	c6.929-11.805,10.638-27.172,9.547-43.738c-1.547-23.493-12.324-43.37-27.048-53.426c-13.278,11.9-21.355,33.018-19.808,56.511
	c0.081,1.234,0.194,2.455,0.325,3.668l-6.387-6.387c-3.518-10.992-10.142-22.008-19.662-31.528
	c-16.586-16.586-37.712-24.401-55.346-22.267c-2.135,17.635,5.681,38.76,22.267,55.346c9.52,9.52,20.537,16.145,31.53,19.663
	l6.386,6.386c-1.213-0.132-2.435-0.244-3.669-0.325c-23.493-1.547-44.612,6.53-56.511,19.808
	c10.056,14.724,29.932,25.501,53.426,27.048c16.566,1.091,31.934-2.619,43.738-9.547l12.399,12.4
	c-1.213-0.131-2.435-0.244-3.669-0.325c-23.493-1.547-44.612,6.53-56.511,19.809c10.056,14.724,29.933,25.501,53.426,27.048
	c16.566,1.091,31.933-2.619,43.738-9.548l10.278,10.279c-1.213-0.131-2.435-0.244-3.668-0.325
	c-23.494-1.547-44.612,6.53-56.511,19.808c10.056,14.724,29.932,25.501,53.426,27.048c16.565,1.091,31.933-2.619,43.738-9.547
	l15.83,15.83c2.929,2.93,6.768,4.394,10.606,4.394s7.678-1.465,10.606-4.394C377.286,362.707,377.286,353.209,371.427,347.351z"/>
<path style="fill:#FFC752;" d="M140.574,137.71c-2.135,17.635,5.681,38.76,22.267,55.346c9.52,9.52,20.537,16.145,31.53,19.662
	l6.386,6.386c-1.214-0.131-2.435-0.244-3.67-0.325c-23.493-1.547-44.611,6.53-56.511,19.808
	c10.056,14.724,29.932,25.501,53.426,27.048c16.566,1.091,31.934-2.619,43.738-9.548l12.4,12.4
	c-1.213-0.131-2.435-0.244-3.669-0.325c-23.493-1.547-44.611,6.53-56.511,19.809c10.056,14.724,29.933,25.501,53.426,27.048
	c16.566,1.091,31.933-2.619,43.738-9.548l10.278,10.278c-1.213-0.131-2.434-0.244-3.669-0.325
	c-23.494-1.547-44.612,6.53-56.511,19.808c10.056,14.724,29.932,25.501,53.426,27.048c16.565,1.091,31.933-2.619,43.738-9.547
	l15.83,15.83c2.929,2.93,6.768,4.394,10.606,4.394c3.838,0,7.678-1.465,10.607-4.394L140.574,137.71z"/>
<path style="fill:#FF426D;" d="M437.02,74.981c-99.974-99.974-262.065-99.974-362.039,0s-99.974,262.064,0,362.039
	s262.064,99.974,362.039,0S536.995,174.955,437.02,74.981z M98.558,374.537c-61.326-77.114-56.336-189.651,14.996-260.984
	s183.87-76.322,260.984-14.996L98.558,374.537z M137.464,413.443l275.98-275.98c61.326,77.114,56.336,189.651-14.996,260.984
	S214.577,474.769,137.464,413.443z"/>
<path style="fill:#FF73B0;" d="M256,455.937c-42.03-0.757-83.864-14.92-118.538-42.494L256,294.906v-77.811L98.558,374.537
	c-61.326-77.114-56.336-189.651,14.997-260.984C152.814,74.294,204.553,55.139,256,56.07V0.011
	c-65.516-0.002-131.032,24.983-181.02,74.97c-99.974,99.974-99.974,262.064,0,362.039c49.987,49.987,115.503,74.972,181.02,74.97
	V455.937z"/>
<g>
</g>
<g>
</g>
<g>
</g>
<g>
</g>
<g>
</g>
<g>
</g>
<g>
</g>
<g>
</g>
<g>
</g>
<g>
</g>
<g>
</g>
<g>
</g>
<g>
</g>
<g>
</g>
<g>
</g>
</svg>
